<mxfile host="app.diagrams.net" agent="Mozilla/5.0 (Windows NT 10.0; Win64; x64; rv:129.0) Gecko/20100101 Firefox/129.0" version="24.7.7">
  <diagram name="第 1 页" id="CSqLPtNgL-avwrGDaTlB">
    <mxGraphModel dx="1235" dy="649" grid="1" gridSize="10" guides="1" tooltips="1" connect="1" arrows="1" fold="1" page="1" pageScale="1" pageWidth="827" pageHeight="1169" math="0" shadow="0">
      <root>
        <mxCell id="0" />
        <mxCell id="1" parent="0" />
        <mxCell id="C2iRjYQwUr5vMglBMvX1-1" value="List&amp;lt;DemandPackageVo&amp;gt;" style="swimlane;fontStyle=0;childLayout=stackLayout;horizontal=1;startSize=30;horizontalStack=0;resizeParent=1;resizeParentMax=0;resizeLast=0;collapsible=1;marginBottom=0;whiteSpace=wrap;html=1;" parent="1" vertex="1">
          <mxGeometry x="280" y="20" width="200" height="1530" as="geometry">
            <mxRectangle x="70" y="50" width="60" height="30" as="alternateBounds" />
          </mxGeometry>
        </mxCell>
        <mxCell id="C2iRjYQwUr5vMglBMvX1-2" value="String id" style="text;strokeColor=none;fillColor=none;align=left;verticalAlign=middle;spacingLeft=4;spacingRight=4;overflow=hidden;points=[[0,0.5],[1,0.5]];portConstraint=eastwest;rotatable=0;whiteSpace=wrap;html=1;labelBackgroundColor=default;fontFamily=Helvetica;" parent="C2iRjYQwUr5vMglBMvX1-1" vertex="1">
          <mxGeometry y="30" width="200" height="30" as="geometry" />
        </mxCell>
        <mxCell id="C2iRjYQwUr5vMglBMvX1-3" value="String demandId" style="text;strokeColor=none;fillColor=none;align=left;verticalAlign=middle;spacingLeft=4;spacingRight=4;overflow=hidden;points=[[0,0.5],[1,0.5]];portConstraint=eastwest;rotatable=0;whiteSpace=wrap;html=1;labelBackgroundColor=default;textShadow=0;" parent="C2iRjYQwUr5vMglBMvX1-1" vertex="1">
          <mxGeometry y="60" width="200" height="30" as="geometry" />
        </mxCell>
        <mxCell id="C2iRjYQwUr5vMglBMvX1-4" value="String projectId" style="text;strokeColor=none;fillColor=none;align=left;verticalAlign=middle;spacingLeft=4;spacingRight=4;overflow=hidden;points=[[0,0.5],[1,0.5]];portConstraint=eastwest;rotatable=0;whiteSpace=wrap;html=1;labelBackgroundColor=default;" parent="C2iRjYQwUr5vMglBMvX1-1" vertex="1">
          <mxGeometry y="90" width="200" height="30" as="geometry" />
        </mxCell>
        <mxCell id="C2iRjYQwUr5vMglBMvX1-77" value="String projectCode" style="text;strokeColor=none;fillColor=none;align=left;verticalAlign=middle;spacingLeft=4;spacingRight=4;overflow=hidden;points=[[0,0.5],[1,0.5]];portConstraint=eastwest;rotatable=0;whiteSpace=wrap;html=1;labelBackgroundColor=default;" parent="C2iRjYQwUr5vMglBMvX1-1" vertex="1">
          <mxGeometry y="120" width="200" height="30" as="geometry" />
        </mxCell>
        <mxCell id="C2iRjYQwUr5vMglBMvX1-76" value="String projectName" style="text;strokeColor=none;fillColor=none;align=left;verticalAlign=middle;spacingLeft=4;spacingRight=4;overflow=hidden;points=[[0,0.5],[1,0.5]];portConstraint=eastwest;rotatable=0;whiteSpace=wrap;html=1;labelBackgroundColor=default;" parent="C2iRjYQwUr5vMglBMvX1-1" vertex="1">
          <mxGeometry y="150" width="200" height="30" as="geometry" />
        </mxCell>
        <mxCell id="C2iRjYQwUr5vMglBMvX1-75" value="String projectTypeCode" style="text;strokeColor=none;fillColor=none;align=left;verticalAlign=middle;spacingLeft=4;spacingRight=4;overflow=hidden;points=[[0,0.5],[1,0.5]];portConstraint=eastwest;rotatable=0;whiteSpace=wrap;html=1;labelBackgroundColor=default;" parent="C2iRjYQwUr5vMglBMvX1-1" vertex="1">
          <mxGeometry y="180" width="200" height="30" as="geometry" />
        </mxCell>
        <mxCell id="C2iRjYQwUr5vMglBMvX1-74" value="String projectTypeName" style="text;strokeColor=none;fillColor=none;align=left;verticalAlign=middle;spacingLeft=4;spacingRight=4;overflow=hidden;points=[[0,0.5],[1,0.5]];portConstraint=eastwest;rotatable=0;whiteSpace=wrap;html=1;labelBackgroundColor=default;" parent="C2iRjYQwUr5vMglBMvX1-1" vertex="1">
          <mxGeometry y="210" width="200" height="30" as="geometry" />
        </mxCell>
        <mxCell id="C2iRjYQwUr5vMglBMvX1-72" value="String ownerOrgId" style="text;strokeColor=none;fillColor=none;align=left;verticalAlign=middle;spacingLeft=4;spacingRight=4;overflow=hidden;points=[[0,0.5],[1,0.5]];portConstraint=eastwest;rotatable=0;whiteSpace=wrap;html=1;labelBackgroundColor=default;" parent="C2iRjYQwUr5vMglBMvX1-1" vertex="1">
          <mxGeometry y="240" width="200" height="30" as="geometry" />
        </mxCell>
        <mxCell id="C2iRjYQwUr5vMglBMvX1-71" value="String ownerOrgCode" style="text;strokeColor=none;fillColor=none;align=left;verticalAlign=middle;spacingLeft=4;spacingRight=4;overflow=hidden;points=[[0,0.5],[1,0.5]];portConstraint=eastwest;rotatable=0;whiteSpace=wrap;html=1;labelBackgroundColor=default;" parent="C2iRjYQwUr5vMglBMvX1-1" vertex="1">
          <mxGeometry y="270" width="200" height="30" as="geometry" />
        </mxCell>
        <mxCell id="C2iRjYQwUr5vMglBMvX1-70" value="String ownerOrgName" style="text;strokeColor=none;fillColor=none;align=left;verticalAlign=middle;spacingLeft=4;spacingRight=4;overflow=hidden;points=[[0,0.5],[1,0.5]];portConstraint=eastwest;rotatable=0;whiteSpace=wrap;html=1;labelBackgroundColor=default;" parent="C2iRjYQwUr5vMglBMvX1-1" vertex="1">
          <mxGeometry y="300" width="200" height="30" as="geometry" />
        </mxCell>
        <mxCell id="C2iRjYQwUr5vMglBMvX1-69" value="String ownerOrgTypeCode" style="text;strokeColor=none;fillColor=none;align=left;verticalAlign=middle;spacingLeft=4;spacingRight=4;overflow=hidden;points=[[0,0.5],[1,0.5]];portConstraint=eastwest;rotatable=0;whiteSpace=wrap;html=1;labelBackgroundColor=default;" parent="C2iRjYQwUr5vMglBMvX1-1" vertex="1">
          <mxGeometry y="330" width="200" height="30" as="geometry" />
        </mxCell>
        <mxCell id="C2iRjYQwUr5vMglBMvX1-68" value="String ownerOrgTypeName" style="text;strokeColor=none;fillColor=none;align=left;verticalAlign=middle;spacingLeft=4;spacingRight=4;overflow=hidden;points=[[0,0.5],[1,0.5]];portConstraint=eastwest;rotatable=0;whiteSpace=wrap;html=1;labelBackgroundColor=default;" parent="C2iRjYQwUr5vMglBMvX1-1" vertex="1">
          <mxGeometry y="360" width="200" height="30" as="geometry" />
        </mxCell>
        <mxCell id="C2iRjYQwUr5vMglBMvX1-67" value="String agreementTypeCode" style="text;strokeColor=none;fillColor=none;align=left;verticalAlign=middle;spacingLeft=4;spacingRight=4;overflow=hidden;points=[[0,0.5],[1,0.5]];portConstraint=eastwest;rotatable=0;whiteSpace=wrap;html=1;labelBackgroundColor=default;" parent="C2iRjYQwUr5vMglBMvX1-1" vertex="1">
          <mxGeometry y="390" width="200" height="30" as="geometry" />
        </mxCell>
        <mxCell id="C2iRjYQwUr5vMglBMvX1-80" value="String agreementPeriod" style="text;strokeColor=none;fillColor=none;align=left;verticalAlign=middle;spacingLeft=4;spacingRight=4;overflow=hidden;points=[[0,0.5],[1,0.5]];portConstraint=eastwest;rotatable=0;whiteSpace=wrap;html=1;labelBackgroundColor=default;" parent="C2iRjYQwUr5vMglBMvX1-1" vertex="1">
          <mxGeometry y="420" width="200" height="30" as="geometry" />
        </mxCell>
        <mxCell id="C2iRjYQwUr5vMglBMvX1-81" value="String agreementPeriodUnit" style="text;strokeColor=none;fillColor=none;align=left;verticalAlign=middle;spacingLeft=4;spacingRight=4;overflow=hidden;points=[[0,0.5],[1,0.5]];portConstraint=eastwest;rotatable=0;whiteSpace=wrap;html=1;labelBackgroundColor=default;" parent="C2iRjYQwUr5vMglBMvX1-1" vertex="1">
          <mxGeometry y="450" width="200" height="30" as="geometry" />
        </mxCell>
        <mxCell id="C2iRjYQwUr5vMglBMvX1-82" value="LocalDateTime effectiveDate" style="text;strokeColor=none;fillColor=none;align=left;verticalAlign=middle;spacingLeft=4;spacingRight=4;overflow=hidden;points=[[0,0.5],[1,0.5]];portConstraint=eastwest;rotatable=0;whiteSpace=wrap;html=1;labelBackgroundColor=default;" parent="C2iRjYQwUr5vMglBMvX1-1" vertex="1">
          <mxGeometry y="480" width="200" height="30" as="geometry" />
        </mxCell>
        <mxCell id="C2iRjYQwUr5vMglBMvX1-83" value="Integer effectiveFlag" style="text;strokeColor=none;fillColor=none;align=left;verticalAlign=middle;spacingLeft=4;spacingRight=4;overflow=hidden;points=[[0,0.5],[1,0.5]];portConstraint=eastwest;rotatable=0;whiteSpace=wrap;html=1;labelBackgroundColor=default;" parent="C2iRjYQwUr5vMglBMvX1-1" vertex="1">
          <mxGeometry y="510" width="200" height="30" as="geometry" />
        </mxCell>
        <mxCell id="C2iRjYQwUr5vMglBMvX1-84" value="LocalDateTime expirationDate" style="text;strokeColor=none;fillColor=none;align=left;verticalAlign=middle;spacingLeft=4;spacingRight=4;overflow=hidden;points=[[0,0.5],[1,0.5]];portConstraint=eastwest;rotatable=0;whiteSpace=wrap;html=1;labelBackgroundColor=default;" parent="C2iRjYQwUr5vMglBMvX1-1" vertex="1">
          <mxGeometry y="540" width="200" height="30" as="geometry" />
        </mxCell>
        <mxCell id="C2iRjYQwUr5vMglBMvX1-85" value="Integer expirationFlag" style="text;strokeColor=none;fillColor=none;align=left;verticalAlign=middle;spacingLeft=4;spacingRight=4;overflow=hidden;points=[[0,0.5],[1,0.5]];portConstraint=eastwest;rotatable=0;whiteSpace=wrap;html=1;labelBackgroundColor=default;" parent="C2iRjYQwUr5vMglBMvX1-1" vertex="1">
          <mxGeometry y="570" width="200" height="30" as="geometry" />
        </mxCell>
        <mxCell id="C2iRjYQwUr5vMglBMvX1-87" value="String priceDefinition" style="text;strokeColor=none;fillColor=none;align=left;verticalAlign=middle;spacingLeft=4;spacingRight=4;overflow=hidden;points=[[0,0.5],[1,0.5]];portConstraint=eastwest;rotatable=0;whiteSpace=wrap;html=1;labelBackgroundColor=default;" parent="C2iRjYQwUr5vMglBMvX1-1" vertex="1">
          <mxGeometry y="600" width="200" height="30" as="geometry" />
        </mxCell>
        <mxCell id="C2iRjYQwUr5vMglBMvX1-88" value="Integer autoEffectFlag" style="text;strokeColor=none;fillColor=none;align=left;verticalAlign=middle;spacingLeft=4;spacingRight=4;overflow=hidden;points=[[0,0.5],[1,0.5]];portConstraint=eastwest;rotatable=0;whiteSpace=wrap;html=1;labelBackgroundColor=default;" parent="C2iRjYQwUr5vMglBMvX1-1" vertex="1">
          <mxGeometry y="630" width="200" height="30" as="geometry" />
        </mxCell>
        <mxCell id="C2iRjYQwUr5vMglBMvX1-89" value="Integer minorEnterpriseStatus" style="text;strokeColor=none;fillColor=none;align=left;verticalAlign=middle;spacingLeft=4;spacingRight=4;overflow=hidden;points=[[0,0.5],[1,0.5]];portConstraint=eastwest;rotatable=0;whiteSpace=wrap;html=1;labelBackgroundColor=default;" parent="C2iRjYQwUr5vMglBMvX1-1" vertex="1">
          <mxGeometry y="660" width="200" height="30" as="geometry" />
        </mxCell>
        <mxCell id="C2iRjYQwUr5vMglBMvX1-90" value="Integer unionPurchaseStatus" style="text;strokeColor=none;fillColor=none;align=left;verticalAlign=middle;spacingLeft=4;spacingRight=4;overflow=hidden;points=[[0,0.5],[1,0.5]];portConstraint=eastwest;rotatable=0;whiteSpace=wrap;html=1;labelBackgroundColor=default;" parent="C2iRjYQwUr5vMglBMvX1-1" vertex="1">
          <mxGeometry y="690" width="200" height="30" as="geometry" />
        </mxCell>
        <mxCell id="m__d6OJdyXCMt7KyZCjO-4" value="String organizeForm" style="text;strokeColor=none;fillColor=none;align=left;verticalAlign=middle;spacingLeft=4;spacingRight=4;overflow=hidden;points=[[0,0.5],[1,0.5]];portConstraint=eastwest;rotatable=0;whiteSpace=wrap;html=1;" vertex="1" parent="C2iRjYQwUr5vMglBMvX1-1">
          <mxGeometry y="720" width="200" height="30" as="geometry" />
        </mxCell>
        <mxCell id="m__d6OJdyXCMt7KyZCjO-3" value="String organizeFormName" style="text;strokeColor=none;fillColor=none;align=left;verticalAlign=middle;spacingLeft=4;spacingRight=4;overflow=hidden;points=[[0,0.5],[1,0.5]];portConstraint=eastwest;rotatable=0;whiteSpace=wrap;html=1;" vertex="1" parent="C2iRjYQwUr5vMglBMvX1-1">
          <mxGeometry y="750" width="200" height="30" as="geometry" />
        </mxCell>
        <mxCell id="m__d6OJdyXCMt7KyZCjO-7" value="String buyerTypeCode" style="text;strokeColor=none;fillColor=none;align=left;verticalAlign=middle;spacingLeft=4;spacingRight=4;overflow=hidden;points=[[0,0.5],[1,0.5]];portConstraint=eastwest;rotatable=0;whiteSpace=wrap;html=1;labelBackgroundColor=default;" vertex="1" parent="C2iRjYQwUr5vMglBMvX1-1">
          <mxGeometry y="780" width="200" height="30" as="geometry" />
        </mxCell>
        <mxCell id="m__d6OJdyXCMt7KyZCjO-6" value="String buyerTypeName" style="text;strokeColor=none;fillColor=none;align=left;verticalAlign=middle;spacingLeft=4;spacingRight=4;overflow=hidden;points=[[0,0.5],[1,0.5]];portConstraint=eastwest;rotatable=0;whiteSpace=wrap;html=1;labelBackgroundColor=default;" vertex="1" parent="C2iRjYQwUr5vMglBMvX1-1">
          <mxGeometry y="810" width="200" height="30" as="geometry" />
        </mxCell>
        <mxCell id="m__d6OJdyXCMt7KyZCjO-5" value="String zoneCode" style="text;strokeColor=none;fillColor=none;align=left;verticalAlign=middle;spacingLeft=4;spacingRight=4;overflow=hidden;points=[[0,0.5],[1,0.5]];portConstraint=eastwest;rotatable=0;whiteSpace=wrap;html=1;labelBackgroundColor=default;" vertex="1" parent="C2iRjYQwUr5vMglBMvX1-1">
          <mxGeometry y="840" width="200" height="30" as="geometry" />
        </mxCell>
        <mxCell id="m__d6OJdyXCMt7KyZCjO-17" value="String packageId" style="text;strokeColor=none;fillColor=none;align=left;verticalAlign=middle;spacingLeft=4;spacingRight=4;overflow=hidden;points=[[0,0.5],[1,0.5]];portConstraint=eastwest;rotatable=0;whiteSpace=wrap;html=1;" vertex="1" parent="C2iRjYQwUr5vMglBMvX1-1">
          <mxGeometry y="870" width="200" height="30" as="geometry" />
        </mxCell>
        <mxCell id="m__d6OJdyXCMt7KyZCjO-27" value="String outsidePackageId" style="text;strokeColor=none;fillColor=none;align=left;verticalAlign=middle;spacingLeft=4;spacingRight=4;overflow=hidden;points=[[0,0.5],[1,0.5]];portConstraint=eastwest;rotatable=0;whiteSpace=wrap;html=1;" vertex="1" parent="C2iRjYQwUr5vMglBMvX1-1">
          <mxGeometry y="900" width="200" height="30" as="geometry" />
        </mxCell>
        <mxCell id="m__d6OJdyXCMt7KyZCjO-28" value="String outsidePackageNumber" style="text;strokeColor=none;fillColor=none;align=left;verticalAlign=middle;spacingLeft=4;spacingRight=4;overflow=hidden;points=[[0,0.5],[1,0.5]];portConstraint=eastwest;rotatable=0;whiteSpace=wrap;html=1;" vertex="1" parent="C2iRjYQwUr5vMglBMvX1-1">
          <mxGeometry y="930" width="200" height="30" as="geometry" />
        </mxCell>
        <mxCell id="m__d6OJdyXCMt7KyZCjO-16" value="Integer packageNumber" style="text;strokeColor=none;fillColor=none;align=left;verticalAlign=middle;spacingLeft=4;spacingRight=4;overflow=hidden;points=[[0,0.5],[1,0.5]];portConstraint=eastwest;rotatable=0;whiteSpace=wrap;html=1;" vertex="1" parent="C2iRjYQwUr5vMglBMvX1-1">
          <mxGeometry y="960" width="200" height="30" as="geometry" />
        </mxCell>
        <mxCell id="m__d6OJdyXCMt7KyZCjO-15" value="String packageName" style="text;strokeColor=none;fillColor=none;align=left;verticalAlign=middle;spacingLeft=4;spacingRight=4;overflow=hidden;points=[[0,0.5],[1,0.5]];portConstraint=eastwest;rotatable=0;whiteSpace=wrap;html=1;" vertex="1" parent="C2iRjYQwUr5vMglBMvX1-1">
          <mxGeometry y="990" width="200" height="30" as="geometry" />
        </mxCell>
        <mxCell id="m__d6OJdyXCMt7KyZCjO-14" value="BigDecimal priceLimit" style="text;strokeColor=none;fillColor=none;align=left;verticalAlign=middle;spacingLeft=4;spacingRight=4;overflow=hidden;points=[[0,0.5],[1,0.5]];portConstraint=eastwest;rotatable=0;whiteSpace=wrap;html=1;" vertex="1" parent="C2iRjYQwUr5vMglBMvX1-1">
          <mxGeometry y="1020" width="200" height="30" as="geometry" />
        </mxCell>
        <mxCell id="m__d6OJdyXCMt7KyZCjO-13" value="String priceLimitCn" style="text;strokeColor=none;fillColor=none;align=left;verticalAlign=middle;spacingLeft=4;spacingRight=4;overflow=hidden;points=[[0,0.5],[1,0.5]];portConstraint=eastwest;rotatable=0;whiteSpace=wrap;html=1;" vertex="1" parent="C2iRjYQwUr5vMglBMvX1-1">
          <mxGeometry y="1050" width="200" height="30" as="geometry" />
        </mxCell>
        <mxCell id="m__d6OJdyXCMt7KyZCjO-12" value="String secondRoundDealMethod" style="text;strokeColor=none;fillColor=none;align=left;verticalAlign=middle;spacingLeft=4;spacingRight=4;overflow=hidden;points=[[0,0.5],[1,0.5]];portConstraint=eastwest;rotatable=0;whiteSpace=wrap;html=1;" vertex="1" parent="C2iRjYQwUr5vMglBMvX1-1">
          <mxGeometry y="1080" width="200" height="30" as="geometry" />
        </mxCell>
        <mxCell id="m__d6OJdyXCMt7KyZCjO-11" value="Integer numPriceDiscountStatus" style="text;strokeColor=none;fillColor=none;align=left;verticalAlign=middle;spacingLeft=4;spacingRight=4;overflow=hidden;points=[[0,0.5],[1,0.5]];portConstraint=eastwest;rotatable=0;whiteSpace=wrap;html=1;" vertex="1" parent="C2iRjYQwUr5vMglBMvX1-1">
          <mxGeometry y="1110" width="200" height="30" as="geometry" />
        </mxCell>
        <mxCell id="m__d6OJdyXCMt7KyZCjO-10" value="Integer numPriceDiscountMethod" style="text;strokeColor=none;fillColor=none;align=left;verticalAlign=middle;spacingLeft=4;spacingRight=4;overflow=hidden;points=[[0,0.5],[1,0.5]];portConstraint=eastwest;rotatable=0;whiteSpace=wrap;html=1;" vertex="1" parent="C2iRjYQwUr5vMglBMvX1-1">
          <mxGeometry y="1140" width="200" height="30" as="geometry" />
        </mxCell>
        <mxCell id="m__d6OJdyXCMt7KyZCjO-9" value="String offerPriceForm" style="text;strokeColor=none;fillColor=none;align=left;verticalAlign=middle;spacingLeft=4;spacingRight=4;overflow=hidden;points=[[0,0.5],[1,0.5]];portConstraint=eastwest;rotatable=0;whiteSpace=wrap;html=1;" vertex="1" parent="C2iRjYQwUr5vMglBMvX1-1">
          <mxGeometry y="1170" width="200" height="30" as="geometry" />
        </mxCell>
        <mxCell id="m__d6OJdyXCMt7KyZCjO-8" value="String offerPriceFormName" style="text;strokeColor=none;fillColor=none;align=left;verticalAlign=middle;spacingLeft=4;spacingRight=4;overflow=hidden;points=[[0,0.5],[1,0.5]];portConstraint=eastwest;rotatable=0;whiteSpace=wrap;html=1;" vertex="1" parent="C2iRjYQwUr5vMglBMvX1-1">
          <mxGeometry y="1200" width="200" height="30" as="geometry" />
        </mxCell>
        <mxCell id="m__d6OJdyXCMt7KyZCjO-1" value="Integer weedOutShortlistMax" style="text;strokeColor=none;fillColor=none;align=left;verticalAlign=middle;spacingLeft=4;spacingRight=4;overflow=hidden;points=[[0,0.5],[1,0.5]];portConstraint=eastwest;rotatable=0;whiteSpace=wrap;html=1;" vertex="1" parent="C2iRjYQwUr5vMglBMvX1-1">
          <mxGeometry y="1230" width="200" height="30" as="geometry" />
        </mxCell>
        <mxCell id="m__d6OJdyXCMt7KyZCjO-26" value="BigDecimal weedOutRate" style="text;strokeColor=none;fillColor=none;align=left;verticalAlign=middle;spacingLeft=4;spacingRight=4;overflow=hidden;points=[[0,0.5],[1,0.5]];portConstraint=eastwest;rotatable=0;whiteSpace=wrap;html=1;" vertex="1" parent="C2iRjYQwUr5vMglBMvX1-1">
          <mxGeometry y="1260" width="200" height="30" as="geometry" />
        </mxCell>
        <mxCell id="m__d6OJdyXCMt7KyZCjO-25" value="Integer weedOutMinCount" style="text;strokeColor=none;fillColor=none;align=left;verticalAlign=middle;spacingLeft=4;spacingRight=4;overflow=hidden;points=[[0,0.5],[1,0.5]];portConstraint=eastwest;rotatable=0;whiteSpace=wrap;html=1;" vertex="1" parent="C2iRjYQwUr5vMglBMvX1-1">
          <mxGeometry y="1290" width="200" height="30" as="geometry" />
        </mxCell>
        <mxCell id="m__d6OJdyXCMt7KyZCjO-24" value="Integer weedOutRoundRule" style="text;strokeColor=none;fillColor=none;align=left;verticalAlign=middle;spacingLeft=4;spacingRight=4;overflow=hidden;points=[[0,0.5],[1,0.5]];portConstraint=eastwest;rotatable=0;whiteSpace=wrap;html=1;" vertex="1" parent="C2iRjYQwUr5vMglBMvX1-1">
          <mxGeometry y="1320" width="200" height="30" as="geometry" />
        </mxCell>
        <mxCell id="m__d6OJdyXCMt7KyZCjO-23" value="String payMethodCode" style="text;strokeColor=none;fillColor=none;align=left;verticalAlign=middle;spacingLeft=4;spacingRight=4;overflow=hidden;points=[[0,0.5],[1,0.5]];portConstraint=eastwest;rotatable=0;whiteSpace=wrap;html=1;" vertex="1" parent="C2iRjYQwUr5vMglBMvX1-1">
          <mxGeometry y="1350" width="200" height="30" as="geometry" />
        </mxCell>
        <mxCell id="m__d6OJdyXCMt7KyZCjO-22" value="String payMethod" style="text;strokeColor=none;fillColor=none;align=left;verticalAlign=middle;spacingLeft=4;spacingRight=4;overflow=hidden;points=[[0,0.5],[1,0.5]];portConstraint=eastwest;rotatable=0;whiteSpace=wrap;html=1;" vertex="1" parent="C2iRjYQwUr5vMglBMvX1-1">
          <mxGeometry y="1380" width="200" height="30" as="geometry" />
        </mxCell>
        <mxCell id="m__d6OJdyXCMt7KyZCjO-21" value="String payDescribe" style="text;strokeColor=none;fillColor=none;align=left;verticalAlign=middle;spacingLeft=4;spacingRight=4;overflow=hidden;points=[[0,0.5],[1,0.5]];portConstraint=eastwest;rotatable=0;whiteSpace=wrap;html=1;" vertex="1" parent="C2iRjYQwUr5vMglBMvX1-1">
          <mxGeometry y="1410" width="200" height="30" as="geometry" />
        </mxCell>
        <mxCell id="m__d6OJdyXCMt7KyZCjO-20" value="Integer numPriceDiscountStatus" style="text;strokeColor=none;fillColor=none;align=left;verticalAlign=middle;spacingLeft=4;spacingRight=4;overflow=hidden;points=[[0,0.5],[1,0.5]];portConstraint=eastwest;rotatable=0;whiteSpace=wrap;html=1;" vertex="1" parent="C2iRjYQwUr5vMglBMvX1-1">
          <mxGeometry y="1440" width="200" height="30" as="geometry" />
        </mxCell>
        <mxCell id="m__d6OJdyXCMt7KyZCjO-19" value="Integer numPriceDiscountMethod" style="text;strokeColor=none;fillColor=none;align=left;verticalAlign=middle;spacingLeft=4;spacingRight=4;overflow=hidden;points=[[0,0.5],[1,0.5]];portConstraint=eastwest;rotatable=0;whiteSpace=wrap;html=1;" vertex="1" parent="C2iRjYQwUr5vMglBMvX1-1">
          <mxGeometry y="1470" width="200" height="30" as="geometry" />
        </mxCell>
        <mxCell id="m__d6OJdyXCMt7KyZCjO-18" style="text;strokeColor=none;fillColor=none;align=left;verticalAlign=middle;spacingLeft=4;spacingRight=4;overflow=hidden;points=[[0,0.5],[1,0.5]];portConstraint=eastwest;rotatable=0;whiteSpace=wrap;html=1;" vertex="1" parent="C2iRjYQwUr5vMglBMvX1-1">
          <mxGeometry y="1500" width="200" height="30" as="geometry" />
        </mxCell>
      </root>
    </mxGraphModel>
  </diagram>
</mxfile>
